<?xml version="1.0" standalone="no"?>
<!DOCTYPE svg PUBLIC "-//W3C//DTD SVG 20010904//EN"
 "http://www.w3.org/TR/2001/REC-SVG-20010904/DTD/svg10.dtd">
<svg version="1.0" xmlns="http://www.w3.org/2000/svg"
 width="736.000000pt" height="585.000000pt" viewBox="0 0 736.000000 585.000000"
 preserveAspectRatio="xMidYMid meet">

<g transform="translate(0.000000,585.000000) scale(0.100000,-0.100000)"
fill="#000000" stroke="none">
<path d="M0 2920 l0 -2920 3680 0 3680 0 0 2920 0 2920 -3680 0 -3680 0 0
-2920z m3423 1259 c36 -18 57 -52 57 -91 0 -55 -6 -63 -94 -125 -212 -148
-366 -368 -433 -621 -24 -86 -27 -116 -27 -262 0 -147 3 -176 27 -265 102
-380 392 -670 775 -772 86 -24 116 -27 262 -27 147 0 176 3 265 27 192 52 394
172 522 311 70 76 94 90 138 82 68 -13 104 -91 71 -154 -21 -40 -171 -184
-251 -242 -159 -114 -391 -206 -580 -229 -615 -75 -1184 285 -1379 870 -125
374 -66 787 157 1119 92 136 281 315 392 370 46 23 67 25 98 9z m651 -690 c75
-14 135 -40 179 -79 21 -18 41 -28 48 -24 7 4 9 3 6 -3 -4 -6 2 -22 13 -36 12
-14 33 -52 47 -84 23 -50 27 -71 27 -153 0 -82 -4 -103 -27 -153 -34 -74 -119
-160 -194 -195 -51 -24 -70 -27 -158 -27 -87 0 -107 3 -157 27 -197 92 -282
323 -188 514 55 111 145 183 262 209 80 17 74 17 142 4z"/>
<path d="M3949 3262 c-19 -10 -33 -23 -32 -29 2 -7 -4 -10 -12 -7 -9 4 -15 0
-15 -9 0 -8 -7 -20 -15 -27 -9 -7 -14 -19 -11 -27 3 -8 2 -12 -3 -9 -4 3 -8
-10 -9 -29 -3 -75 66 -173 111 -159 13 4 17 2 13 -5 -4 -6 0 -11 8 -11 9 0 16
6 16 13 0 8 3 8 9 -2 8 -13 12 -13 27 0 15 12 17 12 9 0 -6 -11 -4 -13 9 -8
10 4 22 7 27 7 6 0 7 5 3 12 -5 8 -2 9 10 5 9 -4 15 -3 12 2 -3 5 10 28 29 52
24 31 33 50 29 66 -4 15 -2 23 6 23 10 0 10 3 0 15 -7 8 -10 22 -6 30 3 9 2
13 -4 10 -6 -4 -13 7 -16 24 -13 62 -125 98 -195 63z m181 -44 c0 -5 -11 -1
-25 8 -14 9 -25 18 -25 20 0 2 11 -2 25 -8 14 -6 25 -15 25 -20z m-230 -198
c6 -11 8 -20 6 -20 -3 0 -10 9 -16 20 -6 11 -8 20 -6 20 3 0 10 -9 16 -20z"/>
<path d="M4126 3003 c-6 -14 -5 -15 5 -6 7 7 10 15 7 18 -3 3 -9 -2 -12 -12z"/>
</g>
</svg>
